PathFileType	4	(X/Y/Z)	s10c0203.trc
DataRate	CameraRate	NumFrames	NumMarkers	Units	OrigDataRate	OrigDataStartFrame	OrigNumFrames
200	200	6	49	mm	200	250	2000
Frame#	Time	racr			lacr			c7			jug			rlel			rdr			llel			ldr			s2			lic			ric			lasi			rasi			rpsi			lpsi			rgt			lgt			rth1			rth2			rth3			rth4			rlfc			rmfc			rsh1			rsh2			rsh3			rsh4			rlmal			rmmal			rcal			rtoe			rmt5			lth1			lth2			lth4			lth3			llfc			lmfc			llmal			lcal			lmt5			lsh1			lsh2			lsh3			lsh4			ltoe			SBIKE			LBIKE			RBIKE			
		X1	Y1	Z1	X2	Y2	Z2	X3	Y3	Z3	X4	Y4	Z4	X5	Y5	Z5	X6	Y6	Z6	X7	Y7	Z7	X8	Y8	Z8	X9	Y9	Z9	X10	Y10	Z10	X11	Y11	Z11	X12	Y12	Z12	X13	Y13	Z13	X14	Y14	Z14	X15	Y15	Z15	X16	Y16	Z16	X17	Y17	Z17	X18	Y18	Z18	X19	Y19	Z19	X20	Y20	Z20	X21	Y21	Z21	X22	Y22	Z22	X23	Y23	Z23	X24	Y24	Z24	X25	Y25	Z25	X26	Y26	Z26	X27	Y27	Z27	X28	Y28	Z28	X29	Y29	Z29	X30	Y30	Z30	X31	Y31	Z31	X32	Y32	Z32	X33	Y33	Z33	X34	Y34	Z34	X35	Y35	Z35	X36	Y36	Z36	X37	Y37	Z37	X38	Y38	Z38	X39	Y39	Z39	X40	Y40	Z40	X41	Y41	Z41	X42	Y42	Z42	X43	Y43	Z43	X44	Y44	Z44	X45	Y45	Z45	X46	Y46	Z46	X47	Y47	Z47	X48	Y48	Z48	X49	Y49	Z49	
250	1.2500	410.826721	1259.602692	-4.021680	478.315076	1320.253039	-273.849624	395.895600	1328.306416	-148.972306	401.907799	1183.807416	-169.005076	426.004441	1004.611184	86.360031	604.907896	923.120531	-18.167048	476.613549	1088.742013	-447.822276	614.604155	911.037432	-417.383345	-114.029337	1107.451549	-231.547564	54.124928	1109.040114	-384.418596	68.434497	1096.324432	-105.824823	55.083336	1025.102830	-362.845921	76.066812	1020.839413	-110.717329	-61.575120	1160.115825	-180.883481	-55.946726	1168.943387	-294.706782	-27.802877	1020.099844	-45.163172	-75.980230	981.936468	-427.743387	61.356780	907.676413	-21.812117	140.218808	869.072600	-36.138377	188.375320	798.420995	-41.986236	162.422150	898.579761	-45.954327	273.528155	725.793350	-59.404574	258.203833	710.347028	-173.985535	236.865636	614.685835	-28.208345	251.656437	527.659168	-40.578618	222.248945	446.431741	-43.833002	280.662580	528.236714	-66.043739	206.599633	345.671154	-59.287352	225.333464	365.075992	-141.704512	155.716298	321.171257	-105.925772	398.278482	313.460154	-105.070364	319.758216	280.964808	-40.665544	23.322809	889.376732	-443.390472	107.389842	869.491218	-432.644235	123.917636	900.977340	-423.679118	172.037705	808.426893	-427.938415	256.751540	742.203008	-408.631980	256.256755	733.933986	-284.944210	-30.331945	494.012608	-380.824669	-87.355799	502.367380	-330.070173	7.066745	355.174162	-397.872929	155.757214	670.012658	-431.927369	116.346935	593.997193	-409.226513	40.162765	548.417019	-400.442934	139.544994	579.279602	-383.336161	85.668640	329.601172	-350.131101	-217.562794	830.625623	-214.431643	-103.903005	80.518011	-418.409969	-103.929568	80.579548	-18.386363	
251	1.2550	409.135927	1260.004962	-3.689927	477.651914	1320.434544	-273.419154	394.460776	1328.775647	-148.737556	400.482445	1184.283912	-168.789434	426.002157	1005.119564	86.306723	604.943744	923.248326	-18.289909	476.913016	1088.899287	-447.332625	614.649086	910.953918	-417.151851	-115.070929	1106.976575	-231.270306	52.773986	1109.586646	-384.371507	67.826864	1096.172232	-105.738677	54.022730	1025.564477	-362.813676	75.533814	1020.695046	-110.822221	-62.420234	1159.988741	-181.360738	-57.331577	1168.978148	-294.360649	-28.369738	1019.164351	-45.185035	-76.679606	982.032863	-427.697269	60.703651	906.598894	-22.149675	139.361906	867.668662	-36.654549	187.303028	796.933460	-42.475818	161.836760	897.146698	-46.177966	272.211290	724.010420	-59.929004	256.507349	708.739251	-174.396847	235.809845	612.940761	-28.490781	250.800179	525.956523	-40.818496	221.522384	444.669956	-43.864453	279.616262	526.515349	-66.416364	206.075501	343.812205	-59.218595	224.630862	363.034790	-141.735034	155.141869	319.389524	-105.835321	397.780848	311.719492	-105.070480	319.375382	279.183679	-40.636226	23.092472	889.811556	-443.031648	107.304622	870.304607	-432.554109	123.754208	901.965546	-423.881286	172.228702	809.435916	-427.803421	257.137264	743.755236	-408.539126	256.469736	735.403240	-284.879953	-30.021202	495.789261	-380.752128	-87.079625	504.058665	-330.040225	7.452292	356.885236	-397.917591	156.123227	671.584125	-431.909223	116.724263	595.624148	-409.186300	40.607704	550.318259	-400.345798	139.945953	580.965940	-383.119603	86.051217	331.378563	-350.076295	-217.568979	830.655117	-214.447086	-103.909199	80.516437	-418.390933	-103.927763	80.594436	-18.382768	
252	1.2600	407.587163	1260.437763	-3.314181	476.928731	1320.619961	-273.144863	393.040763	1329.304978	-148.528711	399.123994	1184.622535	-168.552319	425.906944	1005.623719	86.268702	604.981587	923.267461	-18.338993	477.019506	1089.000601	-447.017725	614.704533	910.855569	-416.961253	-116.172640	1106.618158	-230.802268	51.511614	1110.061912	-384.396219	67.113365	1096.183805	-105.746191	52.957647	1026.062409	-362.772034	75.011306	1020.606730	-110.880942	-64.280804	1159.678774	-179.552141	-58.734500	1169.072998	-294.004268	-28.982285	1018.382094	-45.313537	-77.365818	982.234417	-427.632684	59.986449	905.618640	-22.455531	138.551662	866.453942	-36.950321	186.205111	795.509624	-42.873634	161.169585	895.686449	-46.350110	270.782656	722.331772	-60.363280	254.916111	706.902657	-174.728002	234.706489	611.238583	-28.717825	249.883971	524.136097	-41.072609	220.887317	442.865981	-43.900279	278.875484	524.882272	-66.818084	205.495364	341.926086	-59.211978	224.094186	361.285188	-141.596425	154.627341	317.463428	-105.759310	397.289840	310.010508	-105.080303	318.927445	277.445536	-40.650605	22.931680	890.504911	-443.092330	107.204662	871.305249	-432.464606	123.455936	902.973806	-423.439718	172.399420	810.749484	-427.754041	257.510531	745.466937	-408.568668	256.673153	736.779635	-284.922049	-29.663367	497.497461	-380.699719	-86.760866	505.844896	-329.988720	7.896221	358.712066	-397.862755	156.454692	673.272533	-431.931575	117.085935	597.219519	-409.056485	40.979242	552.027422	-400.228589	140.283074	582.730441	-383.088327	86.500380	333.171463	-350.128260	-217.573678	830.629447	-214.458337	-103.925829	80.514659	-418.391132	-103.931520	80.578882	-18.382163	
253	1.2650	406.029293	1260.855127	-3.035587	476.195302	1320.727255	-272.791094	391.652731	1329.878618	-148.399807	397.626861	1185.028244	-168.213566	425.742293	1006.226835	86.158989	605.003156	923.246344	-18.279340	477.190241	1089.054503	-446.600276	614.754854	910.752895	-416.807385	-117.232205	1106.464172	-230.385386	50.146138	1110.716108	-384.389297	66.238498	1096.326940	-105.842573	51.876728	1026.660143	-362.707226	74.513385	1020.576199	-110.885297	-65.185912	1159.808857	-179.961650	-60.078171	1169.269999	-293.615633	-29.622385	1017.718724	-45.543866	-78.141495	982.558151	-427.512850	59.463525	904.710839	-22.582238	137.638969	865.405455	-37.314342	185.067027	794.014418	-43.179298	160.539484	894.365667	-46.383467	269.382405	720.630331	-60.687599	253.300295	705.128688	-175.038338	233.573657	609.450662	-28.941139	248.997077	522.545999	-41.016538	220.187806	441.112653	-43.950356	277.775639	523.241974	-67.068092	204.735657	340.212068	-58.954570	223.428505	359.395164	-141.559806	154.127278	315.598560	-105.729595	396.796426	308.305873	-105.085008	318.381178	275.648914	-40.707221	22.684933	891.094644	-442.693384	107.085284	872.457217	-432.369122	123.288971	904.147770	-423.652790	172.605326	812.190534	-427.750994	257.848127	747.338441	-408.613516	256.954226	738.450704	-284.965627	-29.286127	499.255374	-380.706502	-86.408504	507.608920	-329.963422	8.352428	360.499101	-397.788002	157.438245	675.292301	-432.605809	117.368391	598.828127	-409.008474	41.417062	553.648903	-400.201943	140.632955	584.340876	-383.140185	87.013970	335.014027	-350.166562	-217.579842	830.620295	-214.457350	-103.909045	80.524181	-418.400659	-103.945836	80.595901	-18.380333	
254	1.2700	404.607087	1261.234436	-2.786737	475.552598	1320.834961	-272.540896	390.320256	1330.465198	-148.270916	396.202264	1185.511603	-167.989094	425.549158	1006.777239	86.056627	605.042046	923.233918	-18.152617	477.330178	1089.078240	-446.147489	614.802146	910.650433	-416.644067	-118.295290	1106.468095	-229.944850	48.784456	1111.454046	-384.302760	65.576572	1096.408557	-105.700016	50.793325	1027.341493	-362.643289	74.013679	1020.597860	-110.887236	-68.598211	1160.321156	-176.927964	-61.413243	1169.564516	-293.114424	-30.103379	1017.083105	-45.543588	-78.903110	982.951272	-427.337345	58.842527	903.963003	-22.672002	136.734313	864.057087	-37.742339	183.869543	792.620887	-43.467965	159.827727	893.066442	-46.492333	267.966576	718.924598	-61.077489	251.662347	703.575035	-175.296417	232.403440	607.875897	-29.038798	248.017626	520.924042	-41.177473	219.449926	439.467794	-43.937882	276.861472	521.694756	-67.258078	204.228023	338.470992	-58.802316	222.693145	357.639366	-141.421322	153.607464	313.903328	-105.644257	396.326308	306.530585	-105.100998	317.911919	273.819223	-40.690577	22.444057	891.995113	-442.509936	106.953331	873.662057	-432.307640	122.985272	905.582784	-423.548746	172.773842	813.735534	-427.804588	258.133340	749.295170	-408.731090	257.261597	740.125409	-285.076992	-28.854301	501.020957	-380.739861	-85.992092	509.240786	-329.904248	8.843716	362.316662	-397.828927	157.704965	677.083439	-432.704586	117.748118	600.703801	-409.126424	41.859240	555.352445	-400.244887	141.071394	586.119199	-383.159190	87.475358	336.970016	-350.128452	-217.582733	830.632432	-214.440470	-103.890233	80.518030	-418.398888	-103.925537	80.584519	-18.372606	
255	1.2750	403.185552	1261.708006	-2.648944	474.799569	1320.950339	-272.455041	389.008054	1331.095059	-148.159568	394.832152	1186.016889	-167.779618	425.304150	1007.152536	85.935543	605.090470	923.189479	-17.917147	477.451716	1089.068243	-445.669041	614.843073	910.591533	-416.505932	-119.354481	1106.483130	-229.464153	47.342832	1112.214139	-384.196684	64.826965	1096.737655	-105.582790	49.737325	1028.068985	-362.579248	73.514228	1020.755728	-110.877090	-64.231707	1157.955830	-182.096161	-62.736786	1169.905208	-292.642072	-30.756907	1016.674350	-45.702365	-79.737006	983.418602	-427.085420	58.357188	903.565544	-21.979801	135.778637	863.010664	-38.030952	182.618397	791.218302	-43.704044	159.143998	891.909568	-46.477074	266.460675	717.363424	-61.339607	250.161794	701.839316	-175.454777	231.174544	606.242448	-29.126395	247.104465	519.328269	-41.239665	218.766195	437.789232	-43.919302	275.714071	520.251075	-67.421610	203.784876	336.577334	-58.727089	222.444033	355.604327	-141.393416	153.143349	312.166939	-105.476146	395.820814	304.699074	-105.090896	317.469075	271.975477	-40.669414	22.191273	892.961448	-442.303733	106.769213	875.124043	-432.245009	122.630388	907.050615	-423.292950	172.906009	815.524064	-427.917735	258.422201	751.423150	-408.912401	257.672213	741.884417	-285.124869	-28.389546	502.792401	-380.782839	-85.543946	511.051232	-329.887686	9.335992	364.097240	-397.848885	157.973490	678.993145	-432.870064	118.138576	602.450721	-409.194613	42.276617	557.116309	-400.241949	141.497668	588.007310	-383.281469	88.012315	338.757857	-350.039756	-217.582199	830.624560	-214.459664	-103.914402	80.525978	-418.397034	-103.938121	80.586047	-18.381756	
